<svg width="44" height="36" viewBox="0 0 44 36" fill="none" xmlns="http://www.w3.org/2000/svg">
<path d="M22.4927 5.93215C10.6284 3.55929 3.2132 11.6995 0.988647 16.0662C6.42642 9.67025 14.5831 8.65105 19.0323 10.6284C35.613 17.9976 42.7608 5.68497 43.7495 0C41.6074 2.96607 34.357 8.30501 22.4927 5.93215Z" fill="#B0B9FF"/>
<path d="M20.6006 14.1915C9.26614 9.95803 3.23399 16.2048 0.494254 20.2681C6.67039 14.5819 12.4188 15.927 16.5941 18.4314C32.1541 27.7648 41.5816 11.9487 43.2552 6.42646C39.5476 12.1114 33.6155 19.0526 20.6006 14.1915Z" fill="#B0B9FF"/>
<path d="M17.302 21.0097C6.99753 14.6685 3.47234 20.2327 -2.74491e-05 23.691C7.15734 19.3035 12.5381 21.7326 16.1516 24.9957C29.618 37.1563 40.5362 21.2568 41.5249 14.5832C36.7899 19.4458 29.1341 28.291 17.302 21.0097Z" fill="#B0B9FF"/>
</svg>
